<svg xmlns="http://www.w3.org/2000/svg" width="64" height="64" viewBox="0 0 24 24" fill="currentColor">
  <path d="M12.504 0c-.155 0-.315.001-.475.002-2.428.014-4.915.366-6.96 1.53-1.06.606-1.99 1.44-2.67 2.46-.68 1.02-1.11 2.24-1.18 3.48-.07 1.24.27 2.52.97 3.55.35.51.79.97 1.31 1.33.52.36 1.13.62 1.77.74.64.12 1.31.12 1.95-.01.64-.13 1.25-.39 1.77-.75.52-.36.96-.82 1.31-1.33.35-.51.61-1.09.76-1.7.15-.61.18-1.25.09-1.88-.09-.63-.31-1.23-.64-1.77-.33-.54-.77-1.01-1.29-1.38-.52-.37-1.12-.63-1.76-.76-.64-.13-1.31-.13-1.95 0-.64.13-1.24.39-1.76.76-.52.37-.96.84-1.29 1.38-.33.54-.55 1.14-.64 1.77-.09.63-.06 1.27.09 1.88.15.61.41 1.19.76 1.7.35.51.79.97 1.31 1.33.52.36 1.13.62 1.77.75.64.13 1.31.13 1.95.01.64-.12 1.25-.38 1.77-.74.52-.36.96-.82 1.31-1.33.7-1.03 1.04-2.31.97-3.55-.07-1.24-.5-2.46-1.18-3.48-.68-1.02-1.61-1.854-2.67-2.46C17.415.368 14.928.016 12.504 0zm-.004 10.5c-.828 0-1.5.672-1.5 1.5s.672 1.5 1.5 1.5 1.5-.672 1.5-1.5-.672-1.5-1.5-1.5z"/>
</svg>
